<svg width="39" height="39" viewBox="0 0 39 39" fill="none" xmlns="http://www.w3.org/2000/svg">
<path d="M27.0458 32.61C25.4941 34.1142 23.8 33.8767 22.1691 33.1642C20.4433 32.4358 18.86 32.4042 17.0391 33.1642C14.7591 34.1458 13.5558 33.8608 12.1941 32.61C4.46748 24.6458 5.60748 12.5175 14.3791 12.0742C16.5166 12.185 18.005 13.2458 19.2558 13.3408C21.1241 12.9608 22.9133 11.8683 24.9083 12.0108C27.2991 12.2008 29.1041 13.1508 30.2916 14.8608C25.3517 17.8217 26.5233 24.3292 31.0516 26.15C30.1491 28.525 28.9775 30.8842 27.03 32.6258L27.0458 32.61ZM19.0975 11.9792C18.86 8.44833 21.7258 5.535 25.0191 5.25C25.4783 9.335 21.3141 12.375 19.0975 11.9792Z" fill="#252525"/>
</svg>
