<svg width="32" height="32" viewBox="0 0 32 32" fill="none" xmlns="http://www.w3.org/2000/svg">
<path d="M25.3339 14.6669H10.4406L16.9472 8.16021C17.4672 7.64021 17.4672 6.78688 16.9472 6.26688C16.8239 6.14327 16.6773 6.04521 16.5161 5.9783C16.3548 5.91139 16.1818 5.87695 16.0072 5.87695C15.8326 5.87695 15.6597 5.91139 15.4984 5.9783C15.3371 6.04521 15.1906 6.14327 15.0672 6.26688L6.28055 15.0535C6.15695 15.1769 6.05888 15.3234 5.99197 15.4847C5.92507 15.646 5.89063 15.8189 5.89062 15.9935C5.89063 16.1682 5.92507 16.3411 5.99197 16.5024C6.05888 16.6637 6.15695 16.8102 6.28055 16.9335L15.0672 25.7202C15.1907 25.8437 15.3372 25.9416 15.4985 26.0084C15.6598 26.0752 15.8326 26.1096 16.0072 26.1096C16.1818 26.1096 16.3547 26.0752 16.5159 26.0084C16.6772 25.9416 16.8238 25.8437 16.9472 25.7202C17.0707 25.5968 17.1686 25.4502 17.2354 25.2889C17.3022 25.1277 17.3366 24.9548 17.3366 24.7802C17.3366 24.6056 17.3022 24.4328 17.2354 24.2715C17.1686 24.1102 17.0707 23.9637 16.9472 23.8402L10.4406 17.3335H25.3339C26.0672 17.3335 26.6672 16.7335 26.6672 16.0002C26.6672 15.2669 26.0672 14.6669 25.3339 14.6669Z" fill="#6CFF39"/>
</svg>
