<svg width="31" height="31" viewBox="0 0 31 31" fill="none" xmlns="http://www.w3.org/2000/svg">
<g clip-path="url(#clip0_151_4900)">
<path d="M28.1221 17.1222L23.2234 19.8947L18.8296 15.5285L23.2584 11.1272L28.1221 13.8797C28.4092 14.042 28.648 14.2777 28.8141 14.5625C28.9803 14.8473 29.0678 15.1712 29.0678 15.501C29.0678 15.8307 28.9803 16.1546 28.8141 16.4394C28.648 16.7243 28.4092 16.9599 28.1221 17.1222ZM2.27086 1.65472C2.17853 1.88005 2.13098 2.12121 2.13086 2.36472V28.636C2.13086 28.9072 2.18711 29.1597 2.28586 29.386L16.2296 15.5272L2.27086 1.65472ZM17.5296 14.236L21.6021 10.1885L4.91211 0.74347C4.55423 0.538261 4.13772 0.459448 3.72961 0.51972L17.5296 14.236ZM17.5296 16.8197L3.77961 30.486C4.15211 30.531 4.54461 30.466 4.91211 30.2572L21.5671 20.8322L17.5296 16.8197Z" fill="#252525"/>
</g>
<defs>
<clipPath id="clip0_151_4900">
<rect width="30" height="30" fill="white" transform="translate(0.599609 0.5)"/>
</clipPath>
</defs>
</svg>
