<svg width="32" height="32" viewBox="0 0 32 32" fill="none" xmlns="http://www.w3.org/2000/svg">
<path d="M18.3943 5.51457C18.0835 5.1936 17.7114 4.93839 17.3 4.7641C16.8886 4.58981 16.4464 4.5 15.9997 4.5C15.5529 4.5 15.1107 4.58981 14.6993 4.7641C14.2879 4.93839 13.9158 5.1936 13.605 5.51457L7.20633 12.1226C6.83966 12.5012 6.593 12.9812 6.497 13.5012C5.72116 17.7388 5.66391 22.0767 6.32766 26.3332L6.56233 27.8399C6.637 28.3159 7.04766 28.6666 7.529 28.6666H11.9997C12.1765 28.6666 12.346 28.5963 12.4711 28.4713C12.5961 28.3463 12.6663 28.1767 12.6663 27.9999V18.6666H19.333V27.9999C19.333 28.1767 19.4032 28.3463 19.5283 28.4713C19.6533 28.5963 19.8229 28.6666 19.9997 28.6666H24.4703C24.7036 28.6673 24.9294 28.5843 25.1065 28.4325C25.2837 28.2808 25.4005 28.0705 25.4357 27.8399L25.6717 26.3332C26.3354 22.0767 26.2782 17.7388 25.5023 13.5012C25.4073 12.9814 25.1599 12.5016 24.7917 12.1226L18.3943 5.51457Z" fill="white"/>
</svg>
