<svg width="764" height="656" viewBox="0 0 764 656" fill="none" xmlns="http://www.w3.org/2000/svg">
<g filter="url(#filter0_d_2114_693)">
<path d="M504.198 266.388C459.238 311.524 464.79 356.74 485.206 390.796C438.302 370.796 394.998 291.5 454.998 219.5C518.998 155.5 506.998 127.5 506.998 103.5C526.998 139.5 558.246 212.14 504.198 266.388Z" fill="#6CFF39"/>
<path d="M494.964 391.496C485.396 370.752 475.412 320.576 504.404 291.496C556.628 237.656 548.244 190.48 547.084 187.632L546.996 187.496C547.018 187.496 547.052 187.541 547.084 187.632C549.236 191.024 590.196 257.472 560.044 331.496C577.444 321.448 584.844 307.728 586.996 303.496C577.988 376.488 531.94 388.504 494.964 391.496ZM478.996 179.496C454.996 194.16 400.74 231.496 397.54 279.496C394.34 327.496 421.54 347.496 437.54 363.496C429.54 351.496 413.54 321.896 413.54 283.496C413.54 245.096 457.66 196.832 478.996 179.496Z" fill="#6CFF39"/>
</g>
<g filter="url(#filter1_d_2114_693)">
<path d="M284.198 366.388C239.238 411.524 244.79 456.74 265.206 490.796C218.302 470.796 174.998 391.5 234.998 319.5C298.998 255.5 286.998 227.5 286.998 203.5C306.998 239.5 338.246 312.14 284.198 366.388Z" fill="#6CFF39"/>
<path d="M274.964 491.496C265.396 470.752 255.412 420.576 284.404 391.496C336.628 337.656 328.244 290.48 327.084 287.632L326.996 287.496C327.018 287.496 327.052 287.541 327.084 287.632C329.236 291.024 370.196 357.472 340.044 431.496C357.444 421.448 364.844 407.728 366.996 403.496C357.988 476.488 311.94 488.504 274.964 491.496ZM258.996 279.496C234.996 294.16 180.74 331.496 177.54 379.496C174.34 427.496 201.54 447.496 217.54 463.496C209.54 451.496 193.54 421.896 193.54 383.496C193.54 345.096 237.66 296.832 258.996 279.496Z" fill="#6CFF39"/>
</g>
<defs>
<filter id="filter0_d_2114_693" x="220.881" y="-84.9" width="542.515" height="640.796" filterUnits="userSpaceOnUse" color-interpolation-filters="sRGB">
<feFlood flood-opacity="0" result="BackgroundImageFix"/>
<feColorMatrix in="SourceAlpha" type="matrix" values="0 0 0 0 0 0 0 0 0 0 0 0 0 0 0 0 0 0 127 0" result="hardAlpha"/>
<feOffset dy="-12"/>
<feGaussianBlur stdDeviation="88.2"/>
<feComposite in2="hardAlpha" operator="out"/>
<feColorMatrix type="matrix" values="0 0 0 0 0.424459 0 0 0 0 1 0 0 0 0 0.222242 0 0 0 0.4 0"/>
<feBlend mode="normal" in2="BackgroundImageFix" result="effect1_dropShadow_2114_693"/>
<feBlend mode="normal" in="SourceGraphic" in2="effect1_dropShadow_2114_693" result="shape"/>
</filter>
<filter id="filter1_d_2114_693" x="0.881256" y="15.1" width="542.515" height="640.796" filterUnits="userSpaceOnUse" color-interpolation-filters="sRGB">
<feFlood flood-opacity="0" result="BackgroundImageFix"/>
<feColorMatrix in="SourceAlpha" type="matrix" values="0 0 0 0 0 0 0 0 0 0 0 0 0 0 0 0 0 0 127 0" result="hardAlpha"/>
<feOffset dy="-12"/>
<feGaussianBlur stdDeviation="88.2"/>
<feComposite in2="hardAlpha" operator="out"/>
<feColorMatrix type="matrix" values="0 0 0 0 0.424459 0 0 0 0 1 0 0 0 0 0.222242 0 0 0 0.4 0"/>
<feBlend mode="normal" in2="BackgroundImageFix" result="effect1_dropShadow_2114_693"/>
<feBlend mode="normal" in="SourceGraphic" in2="effect1_dropShadow_2114_693" result="shape"/>
</filter>
</defs>
</svg>
