<svg width="32" height="32" viewBox="0 0 32 32" fill="none" xmlns="http://www.w3.org/2000/svg">
<path d="M16.4332 17.574C12.6865 21.3353 13.1492 25.1033 14.8505 27.9413C10.9418 26.2747 7.33318 19.6667 12.3332 13.6667C17.6665 8.33333 16.6665 6 16.6665 4C18.3332 7 20.9372 13.0533 16.4332 17.574Z" fill="white"/>
<path d="M15.6637 27.9997C14.8664 26.271 14.0344 22.0897 16.4504 19.6663C20.8024 15.1797 20.1037 11.2483 20.007 11.011L19.9997 10.9997C20.0015 10.9997 20.0044 11.0035 20.007 11.011C20.1864 11.2937 23.5997 16.831 21.087 22.9997C22.537 22.1623 23.1537 21.019 23.333 20.6663C22.5824 26.749 18.745 27.7503 15.6637 27.9997ZM14.333 10.333C12.333 11.555 7.81169 14.6663 7.54502 18.6663C7.27836 22.6663 9.54503 24.333 10.8784 25.6663C10.2117 24.6663 8.87836 22.1997 8.87836 18.9997C8.87836 15.7997 12.555 11.7777 14.333 10.333Z" fill="white"/>
</svg>
