<svg width="24" height="28" viewBox="0 0 24 28" fill="none" xmlns="http://www.w3.org/2000/svg">
<path d="M0 2C0 0.89543 0.895431 0 2 0H22C23.1046 0 24 0.895431 24 2V26.382C24 27.1253 23.2177 27.6088 22.5528 27.2764L18 25H2C0.89543 25 0 24.1046 0 23V2Z" fill="#6CFF39"/>
<path d="M6 15.5C6.6986 16.4315 7.60448 17.1875 8.6459 17.7082C9.68731 18.2289 10.8357 18.5 12 18.5C13.1643 18.5 14.3127 18.2289 15.3541 17.7082C16.3955 17.1875 17.3014 16.4315 18 15.5" stroke="#505050" stroke-width="2.25" stroke-linecap="round" stroke-linejoin="round"/>
</svg>
