<svg width="24" height="25" viewBox="0 0 24 25" fill="none" xmlns="http://www.w3.org/2000/svg">
<path d="M18 6.79518C18.3055 6.96892 18.5591 7.22093 18.7349 7.52527C18.9107 7.82961 19.0022 8.17529 19 8.52673V15.0014C19 15.7205 18.6062 16.3836 17.9706 16.7329L11.9706 20.5285C11.6732 20.6918 11.3393 20.7774 11 20.7774C10.6606 20.7774 10.3268 20.6918 10.0293 20.5285L4.02933 16.7329C3.71837 16.563 3.45878 16.3126 3.2777 16.008C3.09662 15.7034 3.00071 15.3557 3 15.0014V8.52584C3 7.80673 3.39378 7.14451 4.02933 6.79518L10.0293 3.25741C10.3356 3.08856 10.6796 3 11.0293 3C11.379 3 11.7231 3.08856 12.0293 3.25741L18.0293 6.79518H18Z" stroke="white" stroke-width="1.6" stroke-linecap="round" stroke-linejoin="round"/>
<path d="M8.33203 11.8893C8.33203 12.5966 8.61298 13.2748 9.11308 13.7749C9.61317 14.275 10.2914 14.556 10.9987 14.556C11.7059 14.556 12.3842 14.275 12.8843 13.7749C13.3844 13.2748 13.6654 12.5966 13.6654 11.8893C13.6654 11.1821 13.3844 10.5038 12.8843 10.0037C12.3842 9.50361 11.7059 9.22266 10.9987 9.22266C10.2914 9.22266 9.61317 9.50361 9.11308 10.0037C8.61298 10.5038 8.33203 11.1821 8.33203 11.8893Z" stroke="white" stroke-width="1.6" stroke-linecap="round" stroke-linejoin="round"/>
</svg>
