<svg width="24" height="24" viewBox="0 0 24 24" fill="none" xmlns="http://www.w3.org/2000/svg">
<path d="M21.9701 14.6073C21.967 14.8291 21.8952 15.0445 21.7644 15.2236C21.6336 15.4028 21.4504 15.5369 21.2401 15.6073L19.3601 16.2273C18.7673 16.4305 18.2322 16.7735 17.8001 17.2273C17.3496 17.6662 17.0073 18.2036 16.8001 18.7973L16.1501 20.6673C16.076 20.8736 15.9441 21.0541 15.7701 21.1873C15.5855 21.317 15.3656 21.3868 15.1401 21.3873C14.9169 21.3917 14.6986 21.3213 14.5201 21.1873C14.3376 21.056 14.2012 20.8706 14.1301 20.6573L13.5001 18.7773C13.305 18.1863 12.9748 17.649 12.5355 17.208C12.0963 16.7671 11.5603 16.4347 10.9701 16.2373L9.09005 15.6173C8.87861 15.5428 8.69412 15.407 8.56005 15.2273C8.46002 15.0912 8.39398 14.9331 8.36743 14.7663C8.34088 14.5994 8.3546 14.4287 8.40743 14.2682C8.46027 14.1077 8.5507 13.9622 8.67118 13.8438C8.79166 13.7253 8.9387 13.6374 9.10005 13.5873L10.9701 12.9673C11.5669 12.773 12.1097 12.4409 12.5544 11.9979C12.9991 11.5549 13.3334 11.0134 13.5301 10.4173L14.1501 8.55734C14.2106 8.34963 14.337 8.16717 14.5101 8.03734C14.682 7.89469 14.8967 7.81372 15.1201 7.80734C15.3477 7.7926 15.5735 7.85611 15.7601 7.98734C15.9518 8.10908 16.0964 8.29248 16.1701 8.50734L16.8001 10.4073C16.9944 11.0042 17.3265 11.547 17.7695 11.9917C18.2125 12.4364 18.754 12.7706 19.3501 12.9673L21.2201 13.6173C21.4305 13.6832 21.6134 13.8168 21.7401 13.9973C21.8766 14.1728 21.9568 14.3854 21.9701 14.6073ZM12.1001 7.65634C12.0972 7.86135 12.0314 8.06051 11.9115 8.22686C11.7917 8.39321 11.6236 8.51871 11.4301 8.58634L10.0901 9.02634C9.71182 9.1597 9.36957 9.37874 9.09005 9.66634C8.80517 9.94806 8.58655 10.2897 8.45005 10.6663L7.98005 12.0063C7.91565 12.1932 7.79734 12.3567 7.64005 12.4763C7.4698 12.5957 7.26793 12.6618 7.06005 12.6663C6.85384 12.6627 6.65378 12.5955 6.48729 12.4737C6.3208 12.352 6.19602 12.1818 6.13005 11.9863L5.69005 10.6463C5.5567 10.2681 5.33766 9.92586 5.05005 9.64634C4.76833 9.36146 4.42674 9.14284 4.05005 9.00634L2.70005 8.55634C2.50432 8.49335 2.33533 8.36661 2.22005 8.19634C2.0954 8.0326 2.02858 7.83213 2.03005 7.62634C2.0314 7.41793 2.09783 7.21515 2.22005 7.04634C2.345 6.88581 2.51594 6.7672 2.71005 6.70634L4.05005 6.25634C4.42674 6.11985 4.76833 5.90123 5.05005 5.61634C5.34005 5.33934 5.55905 4.99634 5.69005 4.61634L6.14005 3.29634C6.19998 3.10714 6.31486 2.94005 6.47005 2.81634C6.6298 2.69019 6.82653 2.61993 7.03005 2.61634C7.23626 2.599 7.4419 2.65573 7.61005 2.77634C7.78217 2.89006 7.9149 3.05423 7.99005 3.24634L8.44005 4.61634C8.57505 4.99434 8.79405 5.33634 9.08005 5.61634C9.36177 5.90123 9.70336 6.11985 10.0801 6.25634L11.4301 6.72634C11.6183 6.79664 11.781 6.92201 11.8969 7.08611C12.0129 7.25022 12.0767 7.44544 12.0801 7.64634L12.1001 7.65634Z" fill="white"/>
</svg>
