<svg width="24" height="24" viewBox="0 0 24 24" fill="none" xmlns="http://www.w3.org/2000/svg">
<path fill-rule="evenodd" clip-rule="evenodd" d="M21.009 10.172L21.012 13.795C20.986 14.1403 20.953 14.485 20.913 14.829C20.8776 15.1125 20.7476 15.3759 20.544 15.5764C20.3404 15.7769 20.0751 15.9029 19.791 15.934C17.951 16.14 16.047 16.14 14.207 15.934C13.923 15.9029 13.6577 15.7769 13.4541 15.5764C13.2505 15.3759 13.1205 15.1125 13.085 14.829C12.8649 12.9501 12.8649 11.0519 13.085 9.17298C13.1205 8.88942 13.2505 8.6261 13.4541 8.42558C13.6577 8.22507 13.923 8.09908 14.207 8.06798C16.0627 7.86276 17.9354 7.86276 19.791 8.06798C20.378 8.13298 20.846 8.59798 20.913 9.17298C20.9517 9.50565 20.9837 9.83898 21.009 10.173M16.999 10.501C16.6012 10.501 16.2197 10.659 15.9384 10.9403C15.6571 11.2216 15.499 11.6032 15.499 12.001C15.499 12.3988 15.6571 12.7803 15.9384 13.0616C16.2197 13.3429 16.6012 13.501 16.999 13.501C17.3969 13.501 17.7784 13.3429 18.0597 13.0616C18.341 12.7803 18.499 12.3988 18.499 12.001C18.499 11.6032 18.341 11.2216 18.0597 10.9403C17.7784 10.659 17.3969 10.501 16.999 10.501Z" fill="white"/>
<path d="M20.404 6.04007C20.559 6.30907 20.267 6.61007 19.958 6.57607C17.9919 6.35937 16.008 6.35937 14.042 6.57607C13.4208 6.64468 12.8411 6.92131 12.3971 7.361C11.953 7.8007 11.6707 8.37764 11.596 8.99807C11.3641 10.9927 11.3641 13.0075 11.596 15.0021C11.6707 15.6225 11.953 16.1994 12.3971 16.6391C12.8411 17.0788 13.4208 17.3555 14.042 17.4241C16.008 17.6408 17.9919 17.6408 19.958 17.4241C20.269 17.3891 20.564 17.6931 20.407 17.9641C20.0143 18.6413 19.4673 19.2162 18.8105 19.6419C18.1536 20.0676 17.4054 20.3322 16.627 20.4141L15.975 20.4821C12.6641 20.8299 9.3247 20.8067 6.01896 20.4131L5.58696 20.3621C4.72038 20.2591 3.91271 19.8707 3.29131 19.2579C2.6699 18.6452 2.27011 17.8431 2.15496 16.9781C1.71365 13.6741 1.71365 10.3261 2.15496 7.02207C2.27011 6.15702 2.6699 5.35491 3.29131 4.74219C3.91271 4.12948 4.72038 3.74102 5.58696 3.63807L6.01896 3.58707C9.3247 3.1934 12.6641 3.17025 15.975 3.51807L16.627 3.58707C17.4054 3.66891 18.1535 3.93383 18.8099 4.36017C19.4664 4.78651 20.0126 5.36217 20.404 6.04007Z" fill="white"/>
</svg>
