<svg width="33" height="32" viewBox="0 0 33 32" fill="none" xmlns="http://www.w3.org/2000/svg">
<path fill-rule="evenodd" clip-rule="evenodd" d="M28.175 13.5613L28.179 18.392C28.1444 18.8524 28.1004 19.312 28.047 19.7707C27.9998 20.1487 27.8264 20.4998 27.5549 20.7672C27.2835 21.0346 26.9298 21.2025 26.551 21.244C24.0977 21.5187 21.559 21.5187 19.1057 21.244C18.7269 21.2025 18.3732 21.0346 18.1018 20.7672C17.8303 20.4998 17.6569 20.1487 17.6097 19.7707C17.3161 17.2655 17.3161 14.7345 17.6097 12.2293C17.6569 11.8513 17.8303 11.5002 18.1018 11.2328C18.3732 10.9655 18.7269 10.7975 19.1057 10.756C21.5799 10.4824 24.0768 10.4824 26.551 10.756C27.3337 10.8427 27.9577 11.4627 28.047 12.2293C28.0986 12.6729 28.1412 13.1173 28.175 13.5627M22.8284 14C22.2979 14 21.7892 14.2107 21.4141 14.5858C21.0391 14.9609 20.8284 15.4696 20.8284 16C20.8284 16.5304 21.0391 17.0391 21.4141 17.4142C21.7892 17.7893 22.2979 18 22.8284 18C23.3588 18 23.8675 17.7893 24.2426 17.4142C24.6176 17.0391 24.8284 16.5304 24.8284 16C24.8284 15.4696 24.6176 14.9609 24.2426 14.5858C23.8675 14.2107 23.3588 14 22.8284 14Z" fill="#202020"/>
<path d="M27.366 8.05212C27.5726 8.41079 27.1833 8.81212 26.7713 8.76679C24.1499 8.47786 21.5047 8.47786 18.8833 8.76679C18.0551 8.85827 17.2822 9.22711 16.6901 9.81337C16.098 10.3996 15.7216 11.1689 15.622 11.9961C15.3128 14.6556 15.3128 17.342 15.622 20.0015C15.7216 20.8287 16.098 21.5979 16.6901 22.1842C17.2822 22.7705 18.0551 23.1393 18.8833 23.2308C21.5047 23.5197 24.1499 23.5197 26.7713 23.2308C27.186 23.1841 27.5793 23.5895 27.37 23.9508C26.8465 24.8537 26.1171 25.6202 25.2413 26.1879C24.3655 26.7556 23.3679 27.1083 22.33 27.2175L21.4606 27.3081C17.0461 27.7719 12.5936 27.741 8.18596 27.2161L7.60996 27.1481C6.45452 27.0109 5.37763 26.4929 4.54909 25.676C3.72055 24.859 3.18749 23.7895 3.03396 22.6361C2.44555 18.2308 2.44555 13.7668 3.03396 9.36146C3.18749 8.20806 3.72055 7.13858 4.54909 6.32162C5.37763 5.50467 6.45452 4.98673 7.60996 4.84946L8.18596 4.78146C12.5936 4.25656 17.0461 4.2257 21.4606 4.68946L22.33 4.78146C23.3679 4.89058 24.3653 5.24381 25.2406 5.81226C26.1159 6.38072 26.8442 7.14826 27.366 8.05212Z" fill="#202020"/>
</svg>
